<svg id="visual" viewBox="0 0 900 600" width="900" height="600" xmlns="http://www.w3.org/2000/svg" xmlns:xlink="http://www.w3.org/1999/xlink" version="1.1"><rect x="0" y="0" width="900" height="600" fill="#f5f5f5"></rect><defs><linearGradient id="grad1_0" x1="33.3%" y1="0%" x2="100%" y2="100%"><stop offset="20%" stop-color="#009473" stop-opacity="1"></stop><stop offset="80%" stop-color="#009473" stop-opacity="1"></stop></linearGradient></defs><defs><linearGradient id="grad1_1" x1="33.3%" y1="0%" x2="100%" y2="100%"><stop offset="20%" stop-color="#009473" stop-opacity="1"></stop><stop offset="80%" stop-color="#91c5b2" stop-opacity="1"></stop></linearGradient></defs><defs><linearGradient id="grad1_2" x1="33.3%" y1="0%" x2="100%" y2="100%"><stop offset="20%" stop-color="#f5f5f5" stop-opacity="1"></stop><stop offset="80%" stop-color="#91c5b2" stop-opacity="1"></stop></linearGradient></defs><defs><linearGradient id="grad2_0" x1="0%" y1="0%" x2="66.7%" y2="100%"><stop offset="20%" stop-color="#009473" stop-opacity="1"></stop><stop offset="80%" stop-color="#009473" stop-opacity="1"></stop></linearGradient></defs><defs><linearGradient id="grad2_1" x1="0%" y1="0%" x2="66.7%" y2="100%"><stop offset="20%" stop-color="#91c5b2" stop-opacity="1"></stop><stop offset="80%" stop-color="#009473" stop-opacity="1"></stop></linearGradient></defs><defs><linearGradient id="grad2_2" x1="0%" y1="0%" x2="66.7%" y2="100%"><stop offset="20%" stop-color="#91c5b2" stop-opacity="1"></stop><stop offset="80%" stop-color="#f5f5f5" stop-opacity="1"></stop></linearGradient></defs><g transform="translate(900, 0)"><path d="M0 351.5C-68.8 346.5 -137.5 341.6 -175.8 304.4C-214 267.3 -221.7 198.1 -246 142C-270.2 85.9 -310.9 43 -351.5 0L0 0Z" fill="#c3ddd3"></path><path d="M0 234.4C-45.8 231 -91.7 227.7 -117.2 203C-142.7 178.2 -147.8 132.1 -164 94.7C-180.1 57.3 -207.2 28.6 -234.4 0L0 0Z" fill="#5cad92"></path><path d="M0 117.2C-22.9 115.5 -45.8 113.9 -58.6 101.5C-71.3 89.1 -73.9 66 -82 47.3C-90.1 28.6 -103.6 14.3 -117.2 0L0 0Z" fill="#009473"></path></g><g transform="translate(0, 600)"><path d="M0 -351.5C56.8 -334.9 113.6 -318.2 168 -291C222.4 -263.8 274.3 -226 304.4 -175.8C334.6 -125.5 343.1 -62.8 351.5 0L0 0Z" fill="#c3ddd3"></path><path d="M0 -234.4C37.9 -223.2 75.8 -212.1 112 -194C148.2 -175.8 182.8 -150.7 203 -117.2C223.1 -83.7 228.7 -41.8 234.4 0L0 0Z" fill="#5cad92"></path><path d="M0 -117.2C18.9 -111.6 37.9 -106.1 56 -97C74.1 -87.9 91.4 -75.3 101.5 -58.6C111.5 -41.8 114.4 -20.9 117.2 0L0 0Z" fill="#009473"></path></g></svg>