<svg width="512" height="512" viewBox="0 0 512 512" fill="none" xmlns="http://www.w3.org/2000/svg">
<path d="M124.113 166.28H17.3975V495.25H124.113V166.28Z" fill="#999999"/>
<path d="M414.789 170.138C413.656 169.783 412.582 169.395 411.393 169.06C409.955 168.733 408.528 168.46 407.065 168.227C401.403 167.088 395.19 166.281 387.917 166.281C325.706 166.281 286.239 211.653 273.243 229.175V166.28H166.526V495.25H273.242V315.813C273.242 315.813 353.885 203.185 387.916 285.902V495.25H494.604V273.257C494.604 223.549 460.629 182.13 414.789 170.138Z" fill="#999999"/>
<path d="M121.789 69.085C121.789 97.994 98.4164 121.422 69.5944 121.422C40.7704 121.422 17.3984 97.993 17.3984 69.085C17.3984 40.182 40.7704 16.75 69.5944 16.75C98.4164 16.75 121.789 40.182 121.789 69.085Z" fill="#999999"/>
</svg>
