<svg width="39" height="17" viewBox="0 0 39 17" fill="none" xmlns="http://www.w3.org/2000/svg">
<path d="M9.84 17L3.072 1.304C2.992 1.128 2.92 0.983999 2.856 0.871999C2.792 0.759999 2.72 0.679999 2.64 0.631999C2.576 0.567999 2.504 0.519999 2.424 0.487999C2.344 0.439999 2.24 0.399999 2.112 0.368C2.08 0.335999 2.056 0.303999 2.04 0.271999C2.024 0.256 2.016 0.231999 2.016 0.199999H5.784L11.616 13.544L10.248 17H9.84ZM15.096 17C15.096 16.968 15.096 16.936 15.096 16.904C15.128 16.84 15.152 16.808 15.168 16.808C15.264 16.776 15.392 16.744 15.552 16.712C15.728 16.68 15.896 16.624 16.056 16.544C16.232 16.464 16.376 16.344 16.488 16.184C16.616 16.008 16.68 15.768 16.68 15.464L15.552 4.736L17.208 0.199999H19.488C19.488 0.231999 19.488 0.256 19.488 0.271999C19.456 0.32 19.432 0.352 19.416 0.368C19.336 0.399999 19.224 0.463999 19.08 0.559999C18.952 0.655999 18.824 0.791999 18.696 0.967999C18.568 1.128 18.456 1.328 18.36 1.568C18.28 1.808 18.24 2.072 18.24 2.36L19.584 15.344C19.632 15.68 19.736 15.936 19.896 16.112C20.056 16.288 20.232 16.424 20.424 16.52C20.616 16.616 20.8 16.68 20.976 16.712C21.152 16.744 21.288 16.776 21.384 16.808C21.4 16.808 21.424 16.84 21.456 16.904C21.456 16.936 21.456 16.968 21.456 17H15.096ZM0.12 17C0.12 16.968 0.12 16.936 0.12 16.904C0.152 16.84 0.176 16.808 0.192 16.808C0.56 16.392 0.912 15.952 1.248 15.488C1.584 15.024 1.888 14.568 2.16 14.12C2.432 13.656 2.656 13.224 2.832 12.824C3.024 12.424 3.152 12.08 3.216 11.792C3.216 11.792 3.216 11.824 3.216 11.888C3.216 12.768 3.28 13.512 3.408 14.12C3.552 14.728 3.712 15.224 3.888 15.608C4.08 15.992 4.264 16.28 4.44 16.472C4.616 16.664 4.752 16.776 4.848 16.808C4.864 16.808 4.888 16.84 4.92 16.904C4.92 16.936 4.92 16.968 4.92 17H0.12ZM29.4334 0.0319996L36.9454 15.344C37.0734 15.6 37.2174 15.816 37.3774 15.992C37.5534 16.152 37.7294 16.288 37.9054 16.4C38.0814 16.512 38.2414 16.6 38.3854 16.664C38.5454 16.728 38.6734 16.776 38.7694 16.808C38.8174 16.808 38.8414 16.84 38.8414 16.904C38.8574 16.936 38.8654 16.968 38.8654 17H32.7214C32.7214 16.968 32.7214 16.936 32.7214 16.904C32.7534 16.84 32.7774 16.808 32.7934 16.808C32.8894 16.776 33.0174 16.736 33.1774 16.688C33.3374 16.64 33.4814 16.568 33.6094 16.472C33.7374 16.36 33.8254 16.216 33.8734 16.04C33.9214 15.864 33.8734 15.632 33.7294 15.344L27.8734 3.368L29.3134 0.0319996H29.4334ZM21.7534 17C21.7534 16.968 21.7534 16.936 21.7534 16.904C21.7854 16.84 21.8094 16.808 21.8254 16.808C22.1934 16.392 22.5294 15.96 22.8334 15.512C23.1534 15.048 23.4414 14.592 23.6974 14.144C23.9534 13.696 24.1774 13.272 24.3694 12.872C24.5774 12.472 24.7374 12.136 24.8494 11.864C24.8494 11.864 24.8494 11.896 24.8494 11.96C24.7534 12.872 24.7614 13.632 24.8734 14.24C25.0014 14.848 25.1614 15.336 25.3534 15.704C25.5614 16.072 25.7774 16.344 26.0014 16.52C26.2254 16.68 26.3854 16.776 26.4814 16.808C26.4974 16.808 26.5214 16.84 26.5534 16.904C26.5534 16.936 26.5534 16.968 26.5534 17H21.7534Z" fill="#496EAF"/>
</svg>
